# Rhino

g Default
o object_1
v 0 0.80901700258255 -0.5
v 0 0.80901700258255 -0.5
v 0 0.80901700258255 0.5
v 0 0.80901700258255 0.5
v 0 0.80901700258255 0.5
v 0.80901700258255 0.5 0
v 0.80901700258255 0.5 0
v 0.80901700258255 0.5 0
v 0.80901700258255 -0.5 0
v 0.80901700258255 -0.5 0
v 0.80901700258255 -0.5 0
v 0 -0.80901700258255 -0.5
v 0 -0.80901700258255 -0.5
v 0 -0.80901700258255 -0.5
v 0 -0.80901700258255 0.5
v 0 -0.80901700258255 0.5
v 0 -0.80901700258255 0.5
v -0.80901700258255 -0.5 0
v -0.80901700258255 -0.5 0
v -0.80901700258255 -0.5 0
v -0.80901700258255 0.5 0
v -0.80901700258255 0.5 0
v -0.80901700258255 0.5 0
v 0.5 0 -0.80901700258255
v 0.5 0 -0.80901700258255
v -0.5 0 -0.80901700258255
v -0.5 0 -0.80901700258255
v -0.5 0 0.80901700258255
v -0.5 0 0.80901700258255
v 0.5 0 0.80901700258255
v 0.5 0 0.80901700258255
v 0.5 0 0.80901700258255
vt 0.5 0
vt 1 1
vt 1 1
vt 0 1
vt 0.5 0
vt 0 1
vt 0.5 0
vt 1 1
vt 0.5 0
vt 0 1
vt 1 1
vt 0 1
vt 0.5 0
vt 1 1
vt 0.5 0
vt 1 1
vt 0 1
vt 1 1
vt 0 1
vt 0.5 0
vt 1 1
vt 0 1
vt 0.5 0
vt 0 1
vt 1 1
vt 0 1
vt 1 1
vt 0.5 0
vt 1 1
vt 0.5 0
vt 1 1
vt 0 1
vn 0.1784110516309738 0.8660253882408142 -0.4670861661434174
vn -0.5773502588272095 0.5773502588272095 -0.5773502588272095
vn -0.1350453644990921 0.9256147742271423 0.3535534143447876
vn -0.3568221032619476 0.9341723322868347 0
vn 0.30901700258255 0.5000000596046448 0.8090169429779053
vn 0.724617063999176 0.5862274765968323 0.362308531999588
vn 0.9341723322868347 0 -0.3568221032619476
vn 0.5773502588272095 0.5773502588272095 -0.5773502588272095
vn 0.5000000596046448 -0.8090169429779053 -0.30901700258255
vn 0.5773502588272095 -0.5773502588272095 0.5773502588272095
vn 1 0 0
vn -0.2239189743995667 -0.9485360383987427 -0.2239189743995667
vn 0 -0.3568221032619476 -0.9341723322868347
vn 0.5773502588272095 -0.5773502588272095 -0.5773502588272095
vn -0.3568221032619476 -0.9341723322868347 0
vn 0.5000000596046448 -0.8090169429779053 0.30901700258255
vn -0.30901700258255 -0.5000000596046448 0.8090169429779053
vn -0.5000000596046448 -0.8090169429779053 0.30901700258255
vn -1 0 0
vn -0.5773502588272095 -0.5773502588272095 -0.5773502588272095
vn -0.7905694246292114 0.5720614194869995 0.2185080200433731
vn -0.5773502588272095 0.5773502588272095 0.5773502588272095
vn -0.8090169429779053 0.30901700258255 -0.5000000596046448
vn 0.6454972624778748 -0.1102641001343727 -0.7557613253593445
vn 0 0.3568221032619476 -0.9341723322868347
vn -0.30901700258255 0.5000000596046448 -0.8090169429779053
vn -0.5862274765968323 -0.362308531999588 -0.724617063999176
vn -0.8101465106010437 0 0.5862274765968323
vn 0 0 1
vn 0.5862274765968323 -0.362308531999588 0.724617063999176
vn 0.5773502588272095 0.5773502588272095 0.5773502588272095
vn 0 0.3568221032619476 0.9341723322868347
f 1/1/1 25/25/25 26/26/26
f 1/1/1 8/8/8 24/24/24
f 7/7/7 11/11/11 24/24/24
f 9/9/9 14/14/14 24/24/24
f 13/13/13 27/27/27 24/24/24
f 20/20/20 27/27/27 12/12/12
f 23/23/23 27/27/27 19/19/19
f 23/23/23 2/2/2 26/26/26
f 5/5/5 29/29/29 32/32/32
f 5/5/5 31/31/31 6/6/6
f 30/30/30 11/11/11 6/6/6
f 30/30/30 16/16/16 10/10/10
f 30/30/30 29/29/29 17/17/17
f 28/28/28 18/18/18 17/17/17
f 28/28/28 21/21/21 19/19/19
f 28/28/28 3/3/3 22/22/22
f 1/1/1 21/21/21 4/4/4
f 1/1/1 3/3/3 6/6/6
f 9/9/9 16/16/16 12/12/12
f 15/15/15 18/18/18 12/12/12
