# Rhino

g Default
o object_1
v 1.110223024625157e-14 15.625 -41.33333206176758
v -36.08439254760742 15.625 21.16666603088379
v 0 0 0.3333333432674408
v -36.08439254760742 15.625 21.16666603088379
v 0 0 0.3333333432674408
v 36.08439254760742 15.625 21.16666603088379
v 1.110223024625157e-14 15.625 -41.33333206176758
v 0 0 0.3333333432674408
v 36.08439254760742 15.625 21.16666603088379
v 1.110223024625157e-14 15.625 -41.33333206176758
v -36.08439254760742 15.625 21.16666603088379
v -36.08439254760742 1.284980347673602e-16 -20.5
v 36.08439254760742 15.625 21.16666603088379
v 1.110223024625157e-14 15.625 -41.33333206176758
v 36.08439254760742 1.927470587684851e-16 -20.5
v 36.08439254760742 15.625 21.16666603088379
v -36.08439254760742 15.625 21.16666603088379
v -4.934324365660041e-15 1.927470587684851e-16 42
v -4.934324365660041e-15 1.927470587684851e-16 42
v 36.08439254760742 15.625 21.16666603088379
v 50.51815032958984 0 29.5
v 36.08439254760742 1.927470587684851e-16 -20.5
v 36.08439254760742 15.625 21.16666603088379
v 50.51815032958984 0 29.5
v -36.08439254760742 1.284980347673602e-16 -20.5
v 1.110223024625157e-14 15.625 -41.33333206176758
v 2.220446049250313e-14 0 -58
v 36.08439254760742 1.927470587684851e-16 -20.5
v 1.110223024625157e-14 15.625 -41.33333206176758
v 2.220446049250313e-14 0 -58
v -4.934324365660041e-15 1.927470587684851e-16 42
v -36.08439254760742 15.625 21.16666603088379
v -50.51815032958984 0 29.5
v -36.08439254760742 1.284980347673602e-16 -20.5
v -36.08439254760742 15.625 21.16666603088379
v -50.51815032958984 0 29.5
vt 0.004323150962591171 0.5015599727630615
vt 0.436638206243515 0.5015599727630615
vt 0.2204806953668594 0.657558262348175
vt 0.004323150962591171 0.907558262348175
vt 0.2204806953668594 0.7515599727630615
vt 0.436638206243515 0.907558262348175
vt 0.9969843626022339 0.8530486822128296
vt 0.8419039845466614 0.6381630897521973
vt 0.9969843626022339 0.4232774078845978
vt 0.8373375535011292 0.4232774078845978
vt 0.8373375535011292 0.8530486822128296
vt 0.6822571754455566 0.6381630897521973
vt 0.004323150962591171 0.2515599727630615
vt 0.436638206243515 0.2515599727630615
vt 0.2204806953668594 0.4075582325458527
vt 0.436638206243515 0.1575582474470139
vt 0.004323150962591171 0.1575582474470139
vt 0.2204806953668594 0.001559982774779201
vt 0.6780878305435181 0.7310057878494263
vt 0.562720000743866 0.493362158536911
vt 0.6780878305435181 0.4220690727233887
vt 0.5790025591850281 0.3657296597957611
vt 0.4437784850597382 0.0871846079826355
vt 0.5790025591850281 0.00362108601257205
vt 0.5589478015899658 0.7310057878494263
vt 0.4435799121856689 0.493362158536911
vt 0.5589478015899658 0.4220690727233887
vt 0.9971829056739807 0.3657296597957611
vt 0.8619588017463684 0.0871846079826355
vt 0.9971829056739807 0.00362108601257205
vt 0.8577894568443298 0.3657296597957611
vt 0.7225653529167175 0.0871846079826355
vt 0.8577894568443298 0.00362108601257205
vt 0.718396008014679 0.3657296597957611
vt 0.5831719040870667 0.0871846079826355
vt 0.718396008014679 0.00362108601257205
vn 0.5196152329444885 0.800000011920929 0.300000011920929
vn 0.5196152329444885 0.800000011920929 0.300000011920929
vn 0.5196152329444885 0.800000011920929 0.300000011920929
vn 0 0.800000011920929 -0.6000000238418579
vn 0 0.800000011920929 -0.6000000238418579
vn 0 0.800000011920929 -0.6000000238418579
vn -0.5196152329444885 0.800000011920929 0.300000011920929
vn -0.5196152329444885 0.800000011920929 0.300000011920929
vn -0.5196152329444885 0.800000011920929 0.300000011920929
vn -0.5196152329444885 0.800000011920929 -0.300000011920929
vn -0.5196152329444885 0.800000011920929 -0.300000011920929
vn -0.5196152329444885 0.800000011920929 -0.300000011920929
vn 0.5196152329444885 0.800000011920929 -0.300000011920929
vn 0.5196152329444885 0.800000011920929 -0.300000011920929
vn 0.5196152329444885 0.800000011920929 -0.300000011920929
vn 0 0.800000011920929 0.6000000238418579
vn 0 0.800000011920929 0.6000000238418579
vn 2.073341440253965e-17 0.800000011920929 0.6000000238418579
vn 0.1931134909391403 0.5946353077888489 0.7804588675498962
vn 0.1931134909391403 0.5946353077888489 0.7804588675498962
vn 0.1931134909391403 0.5946353077888489 0.7804588675498962
vn 0.7724539637565613 0.5946353077888489 -0.2229882478713989
vn 0.7724539637565613 0.5946353077888489 -0.2229882478713989
vn 0.7724539637565613 0.5946353077888489 -0.2229882478713989
vn -0.5793404579162598 0.5946353077888489 -0.5574706196784973
vn -0.5793404579162598 0.5946353077888489 -0.5574706196784973
vn -0.5793404579162598 0.5946353077888489 -0.5574706196784973
vn 0.5793404579162598 0.5946353077888489 -0.5574706196784973
vn 0.5793404579162598 0.5946353077888489 -0.5574706196784973
vn 0.5793404579162598 0.5946353077888489 -0.5574706196784973
vn -0.1931134909391403 0.5946353077888489 0.7804588675498962
vn -0.1931134909391403 0.5946353077888489 0.7804588675498962
vn -0.1931134909391403 0.5946353077888489 0.7804588675498962
vn -0.7724539637565613 0.5946353077888489 -0.2229882478713989
vn -0.7724539637565613 0.5946353077888489 -0.2229882478713989
vn -0.7724539637565613 0.5946353077888489 -0.2229882478713989
f 3/3/3 1/1/1 2/2/2
f 6/6/6 5/5/5 4/4/4
f 8/8/8 9/9/9 7/7/7
f 12/12/12 11/11/11 10/10/10
f 15/15/15 14/14/14 13/13/13
f 16/16/16 17/17/17 18/18/18
f 20/20/20 19/19/19 21/21/21
f 23/23/23 24/24/24 22/22/22
f 26/26/26 27/27/27 25/25/25
f 29/29/29 28/28/28 30/30/30
f 32/32/32 33/33/33 31/31/31
f 35/35/35 34/34/34 36/36/36
