# ofxOBJModel output



g Default
o object_1
v 0.003 0.251702 0.166667 
v 0.232702 0.017 0.166667 
v 0.498 0 0 

vn 0.470635 0.470635 0.746327 
vn 0.470635 0.470635 0.746327 
vn 0.470635 0.470635 0.746327 

vt 0.5 0.735702 0 
vt 0.735702 0.5 0 
vt 1 0.5 0 
f 1/1/1 2/2/2 3/3/3
v 0.005 -0.503 0 
v 0.232702 0.017 0.166667 
v 0.006 -0.214702 0.166667 

vn 0.470635 -0.470635 0.746327 
vn 0.470635 -0.470635 0.746327 
vn 0.470635 -0.470635 0.746327 

vt 0.5 0 0 
vt 0.735702 0.5 0 
vt 0.5 0.264298 0 
f 4/4/4 5/5/5 6/6/6
v 0.232702 0.017 0.166667 
v 0.005 -0.503 0 
v 0.332333 -0.331333 0 

vn 0.196005 -0.39201 0.898838 
vn 0.196005 -0.39201 0.898838 
vn 0.196005 -0.39201 0.898838 

vt 0.735702 0.5 0 
vt 0.5 0 0 
vt 0.833333 0.166667 0 
f 7/7/7 8/8/8 9/9/9
v 0.498 0 0 
v 0.232702 0.017 0.166667 
v 0.332333 -0.331333 0 

vn 0.515387 -0.257694 0.817294 
vn 0.515387 -0.257694 0.817294 
vn 0.515387 -0.257694 0.817294 

vt 1 0.5 0 
vt 0.735702 0.5 0 
vt 0.833333 0.166667 0 
f 10/10/10 11/11/11 12/12/12
v -0.012 0.5 0 
v -0.229702 0.018 0.166667 
v 0.003 0.251702 0.166667 

vn -0.470635 0.470635 0.746327 
vn -0.470635 0.470635 0.746327 
vn -0.470635 0.470635 0.746327 

vt 0.5 1 0 
vt 0.264298 0.5 0 
vt 0.5 0.735702 0 
f 13/13/13 14/14/14 15/15/15
v -0.012 0.5 0 
v 0.003 0.251702 0.166667 
v 0.333333 0.333333 0 

vn 0.257694 0.515387 0.817294 
vn 0.257694 0.515387 0.817294 
vn 0.257694 0.515387 0.817294 

vt 0.5 1 0 
vt 0.5 0.735702 0 
vt 0.833333 0.833333 0 
f 16/16/16 17/17/17 18/18/18
v 0.333333 0.333333 0 
v 0.003 0.251702 0.166667 
v 0.498 0 0 

vn 0.39201 0.196005 0.898838 
vn 0.39201 0.196005 0.898838 
vn 0.39201 0.196005 0.898838 

vt 0.833333 0.833333 0 
vt 0.5 0.735702 0 
vt 1 0.5 0 
f 19/19/19 20/20/20 21/21/21
v -0.333333 -0.333333 0 
v 0.005 -0.503 0 
v 0.006 -0.214702 0.166667 

vn -0.257694 -0.515387 0.817294 
vn -0.257694 -0.515387 0.817294 
vn -0.257694 -0.515387 0.817294 

vt 0.166667 0.166667 0 
vt 0.5 0 0 
vt 0.5 0.264298 0 
f 22/22/22 23/23/23 24/24/24
v 0.232702 0.017 0.166667 
v 0.003 0.251702 0.166667 
v 0 -0 0 

vn -0.5 -0.5 0.707107 
vn -0.5 -0.5 0.707107 
vn -0.5 -0.5 0.707107 

vt 0.735702 0.5 0 
vt 0.5 0.735702 0 
vt 0.5 0.5 0 
f 25/25/25 26/26/26 27/27/27
v 0.006 -0.214702 0.166667 
v 0.232702 0.017 0.166667 
v 0 -0 0 

vn -0.5 0.5 0.707107 
vn -0.5 0.5 0.707107 
vn -0.5 0.5 0.707107 

vt 0.5 0.264298 0 
vt 0.735702 0.5 0 
vt 0.5 0.5 0 
f 28/28/28 29/29/29 30/30/30
v -0.229702 0.018 0.166667 
v 0.006 -0.214702 0.166667 
v 0 -0 0 

vn 0.5 0.5 0.707107 
vn 0.5 0.5 0.707107 
vn 0.5 0.5 0.707107 

vt 0.264298 0.5 0 
vt 0.5 0.264298 0 
vt 0.5 0.5 0 
f 31/31/31 32/32/32 33/33/33
v 0.003 0.251702 0.166667 
v -0.229702 0.018 0.166667 
v 0 -0 0 

vn 0.5 -0.5 0.707107 
vn 0.5 -0.5 0.707107 
vn 0.5 -0.5 0.707107 

vt 0.5 0.735702 0 
vt 0.264298 0.5 0 
vt 0.5 0.5 0 
f 34/34/34 35/35/35 36/36/36
v -0.333333 0.333333 0 
v -0.5 -0 0 
v -0.229702 0.018 0.166667 

vn -0.515387 0.257694 0.817294 
vn -0.515387 0.257694 0.817294 
vn -0.515387 0.257694 0.817294 

vt 0.166667 0.833333 0 
vt 0 0.5 0 
vt 0.264298 0.5 0 
f 37/37/37 38/38/38 39/39/39
v -0.333333 0.333333 0 
v -0.229702 0.018 0.166667 
v -0.012 0.5 0 

vn -0.196005 0.39201 0.898838 
vn -0.196005 0.39201 0.898838 
vn -0.196005 0.39201 0.898838 

vt 0.166667 0.833333 0 
vt 0.264298 0.5 0 
vt 0.5 1 0 
f 40/40/40 41/41/41 42/42/42
v -0.5 -0 0 
v -0.333333 -0.333333 0 
v 0.006 -0.214702 0.166667 

vn -0.39201 -0.196005 0.898838 
vn -0.39201 -0.196005 0.898838 
vn -0.39201 -0.196005 0.898838 

vt 0 0.5 0 
vt 0.166667 0.166667 0 
vt 0.5 0.264298 0 
f 43/43/43 44/44/44 45/45/45
v 0.006 -0.214702 0.166667 
v -0.229702 0.018 0.166667 
v -0.5 -0 0 

vn -0.470635 -0.470635 0.746327 
vn -0.470635 -0.470635 0.746327 
vn -0.470635 -0.470635 0.746327 

vt 0.5 0.264298 0 
vt 0.264298 0.5 0 
vt 0 0.5 0 
f 46/46/46 47/47/47 48/48/48

