# Rhino

g Default
o object_1
v -27.77346229553223 12.03007507324219 -8.896817207336426
v -27.77346229553223 12.03007507324219 8.896817207336426
v 18.3157901763916 21.05263137817383 0
v -18.15349769592285 12.03007507324219 -23.86577606201172
v -27.77346229553223 12.03007507324219 -8.896817207336426
v 18.3157901763916 21.05263137817383 0
v -1.967836976051331 12.03007507324219 -31.25751876831055
v -18.15349769592285 12.03007507324219 -23.86577606201172
v 18.3157901763916 21.05263137817383 0
v 15.64468479156494 12.03007507324219 -28.72522163391113
v -1.967836976051331 12.03007507324219 -31.25751876831055
v 18.3157901763916 21.05263137817383 0
v 29.09221649169922 12.03007507324219 -17.07286834716797
v 15.64468479156494 12.03007507324219 -28.72522163391113
v 18.3157901763916 21.05263137817383 0
v 34.10526275634766 12.03007507324219 0
v 29.09221649169922 12.03007507324219 -17.07286834716797
v 18.3157901763916 21.05263137817383 0
v 34.10526275634766 12.03007507324219 0
v 18.3157901763916 21.05263137817383 0
v 29.09221649169922 12.03007507324219 17.07286834716797
v 29.09221649169922 12.03007507324219 17.07286834716797
v 18.3157901763916 21.05263137817383 0
v 15.64468479156494 12.03007507324219 28.72522163391113
v 18.3157901763916 21.05263137817383 0
v 15.64468479156494 12.03007507324219 28.72522163391113
v -1.967836976051331 12.03007507324219 31.25751876831055
v -1.967836976051331 12.03007507324219 31.25751876831055
v 18.3157901763916 21.05263137817383 0
v -18.15349769592285 12.03007507324219 23.86577606201172
v 15.64468479156494 12.03007507324219 -28.72522163391113
v -1.967836976051331 12.03007507324219 -31.25751876831055
v 2.128196001052856 0 -51.48297119140625
v 2.128196001052856 0 -51.48297119140625
v 15.64468479156494 12.03007507324219 -28.72522163391113
v 28.78693008422852 0 -39.3083381652832
v 29.09221649169922 12.03007507324219 -17.07286834716797
v 15.64468479156494 12.03007507324219 -28.72522163391113
v 28.78693008422852 0 -39.3083381652832
v 28.78693008422852 0 -39.3083381652832
v 29.09221649169922 12.03007507324219 -17.07286834716797
v 44.6315803527832 0 -14.6535816192627
v 34.10526275634766 12.03007507324219 0
v 29.09221649169922 12.03007507324219 -17.07286834716797
v 44.6315803527832 0 -14.6535816192627
v -18.15349769592285 12.03007507324219 23.86577606201172
v 18.3157901763916 21.05263137817383 0
v -27.77346229553223 12.03007507324219 8.896817207336426
v -18.15349769592285 12.03007507324219 23.86577606201172
v -1.967836976051331 12.03007507324219 31.25751876831055
v -26.88066291809082 0 47.31212997436523
v -26.88066291809082 0 47.31212997436523
v -18.15349769592285 12.03007507324219 23.86577606201172
v -49.029541015625 0 28.12001800537109
v -27.77346229553223 12.03007507324219 8.896817207336426
v -18.15349769592285 12.03007507324219 23.86577606201172
v -49.029541015625 0 28.12001800537109
v -49.029541015625 0 28.12001800537109
v -27.77346229553223 12.03007507324219 8.896817207336426
v -57.28632354736328 0 0
v -27.77346229553223 12.03007507324219 -8.896817207336426
v -27.77346229553223 12.03007507324219 8.896817207336426
v -57.28632354736328 0 0
v -49.029541015625 0 -28.12001800537109
v -57.28632354736328 0 0
v -27.77346229553223 12.03007507324219 -8.896817207336426
v -18.15349769592285 12.03007507324219 -23.86577606201172
v -27.77346229553223 12.03007507324219 -8.896817207336426
v -49.029541015625 0 -28.12001800537109
v -49.029541015625 0 -28.12001800537109
v -18.15349769592285 12.03007507324219 -23.86577606201172
v -26.88066291809082 0 -47.31212997436523
v -1.967836976051331 12.03007507324219 -31.25751876831055
v -18.15349769592285 12.03007507324219 -23.86577606201172
v -26.88066291809082 0 -47.31212997436523
v -1.967836976051331 12.03007507324219 -31.25751876831055
v 2.128196001052856 0 -51.48297119140625
v -26.88066291809082 0 -47.31212997436523
v 44.6315803527832 0 -14.6535816192627
v 34.10526275634766 12.03007507324219 0
v 44.6315803527832 0 14.6535816192627
v 29.09221649169922 12.03007507324219 17.07286834716797
v 34.10526275634766 12.03007507324219 0
v 44.6315803527832 0 14.6535816192627
v 29.09221649169922 12.03007507324219 17.07286834716797
v 44.6315803527832 0 14.6535816192627
v 28.78693008422852 0 39.3083381652832
v 29.09221649169922 12.03007507324219 17.07286834716797
v 15.64468479156494 12.03007507324219 28.72522163391113
v 28.78693008422852 0 39.3083381652832
v 28.78693008422852 0 39.3083381652832
v 15.64468479156494 12.03007507324219 28.72522163391113
v 2.128196001052856 0 51.48297119140625
v -1.967836976051331 12.03007507324219 31.25751876831055
v 15.64468479156494 12.03007507324219 28.72522163391113
v 2.128196001052856 0 51.48297119140625
v -1.967836976051331 12.03007507324219 31.25751876831055
v -26.88066291809082 0 47.31212997436523
v 2.128196001052856 0 51.48297119140625
vt 0.0009332954650744796 0.5139067769050598
vt 0.09426256269216537 0.5139067769050598
vt 0.04759792611002922 0.7602378129959106
vt 0.7775269746780396 0.9629349708557129
vt 0.7428699731826782 0.8751944899559021
vt 0.9960038065910339 0.8751944899559021
vt 0.7701656818389893 0.4730574190616608
vt 0.7098750472068787 0.3756403625011444
vt 0.99567711353302 0.3756403625011444
vt 0.3176180720329285 0.9626926183700562
vt 0.2566307783126831 0.8903620839118958
vt 0.4593796133995056 0.8903620839118958
vt 0.6008899807929993 0.8160660862922668
vt 0.668140709400177 0.7507643699645996
vt 0.668140709400177 0.90838223695755
vt 0.5329048037528992 0.5833117961883545
vt 0.464231014251709 0.4960720837116241
vt 0.6001386046409607 0.4960720837116241
vt 0.5314648151397705 0.7103060483932495
vt 0.464231014251709 0.6230663657188416
vt 0.6001386046409607 0.6230663657188416
vt 0.6709505319595337 0.8430805802345276
vt 0.7382012605667114 0.7507643699645996
vt 0.7382012605667114 0.90838223695755
vt 0.4593796133995056 0.5121667981147766
vt 0.3176180720329285 0.584497332572937
vt 0.2566307783126831 0.5121667981147766
vt 0.9353865385055542 0.3525239527225494
vt 0.7098750472068787 0.2551068961620331
vt 0.99567711353302 0.2551068961620331
vt 0.2516043484210968 0.512214183807373
vt 0.1957001090049744 0.5892868638038635
vt 0.09819479286670685 0.512214183807373
vt 0.5871919393539429 0.1888245195150375
vt 0.4641028344631195 0.05008462443947792
vt 0.5871919393539429 0.001869549858383834
vt 0.5974204540252686 0.7499491572380066
vt 0.539495587348938 0.8260459899902344
vt 0.4642041027545929 0.7499491572380066
vt 0.4593796133995056 0.7550322413444519
vt 0.3288307785987854 0.8714383840560913
vt 0.2566307783126831 0.7550322413444519
vt 0.7375413179397583 0.6231343746185303
vt 0.6772569417953491 0.7171764969825745
vt 0.6042949557304382 0.6231343746185303
vt 0.9613468050956726 0.8372520804405212
vt 0.7428699731826782 0.7495115995407104
vt 0.9960038065910339 0.7495115995407104
vt 0.2355019897222519 0.3185999691486359
vt 0.3411307334899902 0.2555414438247681
vt 0.3411307334899902 0.4747495949268341
vt 0.7415971159934998 0.5776954293251038
vt 0.8674460053443909 0.4970186352729797
vt 0.8674460053443909 0.6789127588272095
vt 0.3003463745117188 0.722124457359314
vt 0.2566307783126831 0.622797966003418
vt 0.4593796133995056 0.622797966003418
vt 0.1243748739361763 0.4316008388996124
vt 0.002284126123413444 0.257463127374649
vt 0.2306967228651047 0.257463127374649
vt 0.7044182419776917 0.2051380276679993
vt 0.5910216569900513 0.2051380276679993
vt 0.6477199196815491 0.002031069714576006
vt 0.1086059883236885 0.1758791208267212
vt 0.002284126123413444 0.001741377520374954
vt 0.2306967228651047 0.001741377520374954
vt 0.5723711252212524 0.4652787744998932
vt 0.4639560878276825 0.4175631701946259
vt 0.5723711252212524 0.2439781725406647
vt 0.9972766637802124 0.4970186352729797
vt 0.9972766637802124 0.6789127588272095
vt 0.8714278340339661 0.5982359647750854
vt 0.4591819941997528 0.1300550401210785
vt 0.3951733112335205 0.2372753918170929
vt 0.2366708070039749 0.1300550401210785
vt 0.8506218791007996 0.2191958278417587
vt 0.7084388732910156 0.1460340768098831
vt 0.8506218791007996 0.002170255873352289
vt 0.4591819941997528 0.001213656039908528
vt 0.3479264080524445 0.1225792542099953
vt 0.2366708070039749 0.001213656039908528
vt 0.6645793318748474 0.5901822447776794
vt 0.6042949557304382 0.4961401224136353
vt 0.7375413179397583 0.4961401224136353
vt 0.3448063135147095 0.326964795589447
vt 0.4602526426315308 0.2553601264953613
vt 0.4602526426315308 0.4564371407032013
vt 0.5974204540252686 0.875355064868927
vt 0.539495587348938 0.9514518976211548
vt 0.4642041027545929 0.875355064868927
vt 0.7042714953422546 0.4382316470146179
vt 0.5762008428573608 0.3880652487277985
vt 0.7042714953422546 0.24371038377285
vt 0.1540990471839905 0.8335651159286499
vt 0.09819479286670685 0.7564924359321594
vt 0.2516043484210968 0.7564924359321594
vt 0.9971133470535278 0.002170255873352289
vt 0.9971133470535278 0.2191958278417587
vt 0.8549303412437439 0.07533201575279236
vn -0.1921160668134689 0.9813722372055054 5.496151949271839e-17
vn -0.1921160668134689 0.9813722372055054 5.392097260424099e-17
vn -0.1921160668134689 0.9813722372055054 3.508704116644768e-18
vn -0.1705412864685059 0.9792361855506897 -0.109600231051445
vn -0.1705412864685059 0.9792361855506897 -0.109600231051445
vn -0.1705412864685059 0.9792361855506897 -0.109600231051445
vn -0.0987716019153595 0.9713224172592163 -0.2162796407938004
vn -0.0987716019153595 0.9713224172592163 -0.2162796407938004
vn -0.0987716019153595 0.9713224172592163 -0.2162796407938004
vn 0.04357423260807991 0.951973021030426 -0.3030654489994049
vn 0.04357423260807991 0.951973021030426 -0.3030654489994049
vn 0.04357423260807991 0.951973021030426 -0.3030654489994049
vn 0.2697410583496094 0.9112263321876526 -0.3112977743148804
vn 0.2697410583496094 0.9112263321876526 -0.3112977743148804
vn 0.2697410583496094 0.9112263321876526 -0.3112977743148804
vn 0.4909566044807434 0.8591740727424622 -0.1441578716039658
vn 0.4909566044807434 0.8591740727424622 -0.1441578716039658
vn 0.4909566044807434 0.8591740727424622 -0.1441578716039658
vn 0.4909566044807434 0.8591740727424622 0.1441578716039658
vn 0.4909566044807434 0.8591740727424622 0.1441578716039658
vn 0.4909566044807434 0.8591740727424622 0.1441578716039658
vn 0.2697410583496094 0.9112263321876526 0.3112977743148804
vn 0.2697410583496094 0.9112263321876526 0.3112977743148804
vn 0.2697410583496094 0.9112263321876526 0.3112977743148804
vn 0.04357423260807991 0.951973021030426 0.3030654489994049
vn 0.04357423260807991 0.951973021030426 0.3030654489994049
vn 0.04357423260807991 0.951973021030426 0.3030654489994049
vn -0.0987716019153595 0.9713224172592163 0.2162796407938004
vn -0.0987716019153595 0.9713224172592163 0.2162796407938004
vn -0.0987716019153595 0.9713224172592163 0.2162796407938004
vn 0.07176146656274796 0.8635609745979309 -0.4991119801998138
vn 0.07176146656274796 0.8635609745979309 -0.4991119801998138
vn 0.07176146656274796 0.8635609745979309 -0.4991119801998138
vn 0.2589966356754303 0.7818514108657837 -0.5671235322952271
vn 0.2589966356754303 0.7818514108657837 -0.5671235322952271
vn 0.2589966356754303 0.7818514108657837 -0.5671235322952271
vn 0.3842101991176605 0.8098005652427673 -0.4434022307395935
vn 0.3842101991176605 0.8098005652427673 -0.4434022307395935
vn 0.3842101991176605 0.8098005652427673 -0.4434022307395935
vn 0.6014559268951416 0.6991735100746155 -0.3865322768688202
vn 0.6014559268951416 0.6991735100746155 -0.3865322768688202
vn 0.6014559268951416 0.6991735100746155 -0.3865322768688202
vn 0.6194987893104553 0.7636315822601318 -0.1819012612104416
vn 0.6194987893104553 0.7636315822601318 -0.1819012612104416
vn 0.6194987893104553 0.7636315822601318 -0.1819012612104416
vn -0.1705412864685059 0.9792361855506897 0.109600231051445
vn -0.1705412864685059 0.9792361855506897 0.109600231051445
vn -0.1705412864685059 0.9792361855506897 0.109600231051445
vn -0.1804045438766479 0.9007801413536072 0.3950308263301849
vn -0.1804045438766479 0.9007801413536072 0.3950308263301849
vn -0.1804045438766479 0.9007801413536072 0.3950308263301849
vn -0.2990660667419434 0.8896276950836182 0.3451406359672546
vn -0.2990660667419434 0.8896276950836182 0.3451406359672546
vn -0.2990660667419434 0.8896276950836182 0.3451406359672546
vn -0.3293584883213043 0.9201741814613342 0.2116658538579941
vn -0.3293584883213043 0.9201741814613342 0.2116658538579941
vn -0.3293584883213043 0.9201741814613342 0.2116658538579941
vn -0.4053407907485962 0.9063847661018372 0.1190187931060791
vn -0.4053407907485962 0.9063847661018372 0.1190187931060791
vn -0.4053407907485962 0.9063847661018372 0.1190187931060791
vn -0.3774668872356415 0.9260230660438538 0
vn -0.3774668872356415 0.9260230660438538 0
vn -0.3774668872356415 0.9260230660438538 0
vn -0.4053407907485962 0.9063847661018372 -0.1190187931060791
vn -0.4053407907485962 0.9063847661018372 -0.1190187931060791
vn -0.4053407907485962 0.9063847661018372 -0.1190187931060791
vn -0.3293584883213043 0.9201741814613342 -0.2116658538579941
vn -0.3293584883213043 0.9201741814613342 -0.2116658538579941
vn -0.3293584883213043 0.9201741814613342 -0.2116658538579941
vn -0.2990660667419434 0.8896276950836182 -0.3451406359672546
vn -0.2990660667419434 0.8896276950836182 -0.3451406359672546
vn -0.2990660667419434 0.8896276950836182 -0.3451406359672546
vn -0.1804045438766479 0.9007801413536072 -0.3950308263301849
vn -0.1804045438766479 0.9007801413536072 -0.3950308263301849
vn -0.1804045438766479 0.9007801413536072 -0.3950308263301849
vn -0.07489842176437378 0.8503071069717407 -0.5209299921989441
vn -0.07489842176437378 0.8503071069717407 -0.5209299921989441
vn -0.07489842176437378 0.8503071069717407 -0.5209299921989441
vn 0.7525767087936401 0.6585046052932739 5.556260848280353e-17
vn 0.7525767087936401 0.6585046052932739 0
vn 0.7525767087936401 0.6585046052932739 5.556260848280353e-17
vn 0.6194987893104553 0.7636315822601318 0.1819012612104416
vn 0.6194987893104553 0.7636315822601318 0.1819012612104416
vn 0.6194987893104553 0.7636315822601318 0.1819012612104416
vn 0.6014559268951416 0.6991735100746155 0.3865322768688202
vn 0.6014559268951416 0.6991735100746155 0.3865322768688202
vn 0.6014559268951416 0.6991735100746155 0.3865322768688202
vn 0.3842101991176605 0.8098005652427673 0.4434022307395935
vn 0.3842101991176605 0.8098005652427673 0.4434022307395935
vn 0.3842101991176605 0.8098005652427673 0.4434022307395935
vn 0.2589966356754303 0.7818514108657837 0.5671235322952271
vn 0.2589966356754303 0.7818514108657837 0.5671235322952271
vn 0.2589966356754303 0.7818514108657837 0.5671235322952271
vn 0.07176146656274796 0.8635609745979309 0.4991119801998138
vn 0.07176146656274796 0.8635609745979309 0.4991119801998138
vn 0.07176146656274796 0.8635609745979309 0.4991119801998138
vn -0.07489842176437378 0.8503071069717407 0.5209299921989441
vn -0.07489842176437378 0.8503071069717407 0.5209299921989441
vn -0.07489842176437378 0.8503071069717407 0.5209299921989441
f 3/3/3 1/1/1 2/2/2
f 4/4/4 5/5/5 6/6/6
f 7/7/7 8/8/8 9/9/9
f 10/10/10 11/11/11 12/12/12
f 13/13/13 14/14/14 15/15/15
f 16/16/16 17/17/17 18/18/18
f 19/19/19 20/20/20 21/21/21
f 22/22/22 23/23/23 24/24/24
f 26/26/26 25/25/25 27/27/27
f 28/28/28 29/29/29 30/30/30
f 32/32/32 31/31/31 33/33/33
f 35/35/35 36/36/36 34/34/34
f 38/38/38 37/37/37 39/39/39
f 41/41/41 42/42/42 40/40/40
f 44/44/44 43/43/43 45/45/45
f 46/46/46 47/47/47 48/48/48
f 49/49/49 51/51/51 50/50/50
f 52/52/52 53/53/53 54/54/54
f 55/55/55 57/57/57 56/56/56
f 58/58/58 59/59/59 60/60/60
f 62/62/62 61/61/61 63/63/63
f 64/64/64 65/65/65 66/66/66
f 68/68/68 67/67/67 69/69/69
f 72/72/72 70/70/70 71/71/71
f 74/74/74 73/73/73 75/75/75
f 77/77/77 78/78/78 76/76/76
f 80/80/80 81/81/81 79/79/79
f 82/82/82 84/84/84 83/83/83
f 85/85/85 87/87/87 86/86/86
f 89/89/89 90/90/90 88/88/88
f 92/92/92 93/93/93 91/91/91
f 94/94/94 96/96/96 95/95/95
f 99/99/99 97/97/97 98/98/98
