# Rhino

g Default
o object_1
v 1.950615741792752e-14 0 49.22234725952148
v 42.62780380249023 0 24.61117362976074
v -3.931884165990626e-15 16.36904716491699 24.61117362976074
v 42.62780380249023 16.36904716491699 -4.615210123792846e-14
v 42.62780380249023 16.36904716491699 -4.615210123792846e-14
v -3.931884165990626e-15 16.36904716491699 24.61117362976074
v -42.62780380249023 0 24.61117362976074
v 42.62780380249023 0 -24.61117362976074
v -3.931884165990626e-15 16.36904716491699 24.61117362976074
v 1.950615741792752e-14 0 49.22234725952148
v -42.62780380249023 0 24.61117362976074
v -3.230425096260175e-14 0 -49.22234725952148
v -42.62780380249023 0 -24.61117362976074
v -7.632627440235656e-15 16.36904716491699 -24.61117362976074
v -42.62780380249023 16.36904716491699 2.786276594103805e-14
v 42.62780380249023 0 -24.61117362976074
v -42.62780380249023 0 24.61117362976074
v -42.62780380249023 16.36904716491699 2.786276594103805e-14
v -7.632627440235656e-15 16.36904716491699 -24.61117362976074
v -7.632627440235656e-15 16.36904716491699 -24.61117362976074
v -3.230425096260175e-14 0 -49.22234725952148
v 42.62780380249023 0 -24.61117362976074
vt 0.9165955781936646 0.496098518371582
vt 0.4703100621700287 0.496098518371582
vt 0.8050242066383362 0.2524366080760956
vt 0.3587386906147003 0.2524366080760956
vt 0.9131178855895996 0.6744529008865356
vt 0.5967575311660767 0.6744529008865356
vt 0.3594873249530792 0.501727283000946
vt 0.992207944393158 0.501727283000946
vt 0.001716820988804102 0.4811942279338837
vt 0.1733984053134918 0.4025822281837463
vt 0.1733984053134918 0.7170302271842957
vt 0.9165955781936646 0.2460985332727432
vt 0.4703100621700287 0.2460985332727432
vt 0.8050242066383362 0.002436619251966476
vt 0.3587386906147003 0.002436619251966476
vt 0.3594873249530792 0.751727283000946
vt 0.992207944393158 0.751727283000946
vt 0.9131178855895996 0.9244529008865356
vt 0.5967575311660767 0.9244529008865356
vt 0.1782968789339066 0.4811942279338837
vt 0.3499784767627716 0.4025822281837463
vt 0.3499784767627716 0.7170302271842957
vn 0.3045483231544495 0.7930960059165955 0.5274931788444519
vn 0.3045483231544495 0.7930960059165955 0.5274931788444519
vn 0.3045483231544495 0.7930960059165955 0.5274931788444519
vn 0.3045483231544495 0.7930960059165955 0.5274931788444519
vn -0.3045483231544495 0.7930960059165955 -0.5274931788444519
vn -0.3045483231544495 0.7930960059165955 -0.5274931788444519
vn -0.3045483231544495 0.7930960059165955 -0.5274931788444519
vn -0.3045483231544495 0.7930960059165955 -0.5274931788444519
vn -0.3045483231544495 0.7930960059165955 0.5274931788444519
vn -0.3045483231544495 0.7930960059165955 0.5274931788444519
vn -0.3045483231544495 0.7930960059165955 0.5274931788444519
vn -0.3045483231544495 0.7930960059165955 -0.5274931788444519
vn -0.3045483231544495 0.7930960059165955 -0.5274931788444519
vn -0.3045483231544495 0.7930960059165955 -0.5274931788444519
vn -0.3045483231544495 0.7930960059165955 -0.5274931788444519
vn 0.3045483231544495 0.7930960059165955 0.5274931788444519
vn 0.3045483231544495 0.7930960059165955 0.5274931788444519
vn 0.3045483231544495 0.7930960059165955 0.5274931788444519
vn 0.3045483231544495 0.7930960059165955 0.5274931788444519
vn 0.3045483231544495 0.7930960059165955 -0.5274931788444519
vn 0.3045483231544495 0.7930960059165955 -0.5274931788444519
vn 0.3045483231544495 0.7930960059165955 -0.5274931788444519
f 3/3/3 2/2/2 4/4/4
f 2/2/2 3/3/3 1/1/1
f 8/8/8 7/7/7 6/6/6
f 6/6/6 5/5/5 8/8/8
f 9/9/9 11/11/11 10/10/10
f 14/14/14 13/13/13 15/15/15
f 13/13/13 14/14/14 12/12/12
f 17/17/17 16/16/16 19/19/19
f 19/19/19 18/18/18 17/17/17
f 20/20/20 22/22/22 21/21/21
