# Rhino

g Default
o object_1
v 0 28.79039192199707 -13.99349784851074
v -59.09090805053711 0 39
v 2.131628207280301e-14 0 -63.34845733642578
vt 0.635619044303894 0.7189579606056213
vt 0.009803921915590763 0.009803921915590763
vt 0.9901960492134094 0.009803921915590763
vn -0.6575354933738708 0.650791347026825 -0.3796283006668091
vn -0.6575354933738708 0.650791347026825 -0.3796283006668091
vn -0.6575354933738708 0.650791347026825 -0.3796283006668091
f 1/1/1 3/3/3 2/2/2
o object_2
v 0 28.79039192199707 -13.99349784851074
v 41.35995483398438 0 8.289088249206543
v 2.131628207280301e-14 0 -63.34845733642578
vt 0.635619044303894 0.7189579606056213
vt 0.3039826154708862 0.009803921915590763
vt 0.9901960492134094 0.009803921915590763
vn 0.6575354933738708 0.650791347026825 -0.3796283006668091
vn 0.6575354933738708 0.650791347026825 -0.3796283006668091
vn 0.6575354933738708 0.650791347026825 -0.3796283006668091
f 4/4/4 5/5/5 6/6/6
o object_3
v -59.09090805053711 0 39
v 41.35995483398438 0 8.289088249206543
v 0 28.79039192199707 -13.99349784851074
vt 0 0
vt 0.8290006518363953 1
vt 0.7582802176475525 0.003552257316187024
vn 0.1908860951662064 0.7574541568756104 0.6243602633476257
vn 0.1908860951662064 0.7574541568756104 0.6243602633476257
vn 0.1908860951662064 0.7574541568756104 0.6243602633476257
f 8/8/8 9/9/9 7/7/7
o object_4
v 35.00060653686523 16.22663497924805 25.09145736694336
v 59.09090805053711 0 39
v 41.35995483398438 0 8.289088249206543
vt 0.209648072719574 0.4094922244548798
vt 0.009803921915590763 0.009803921915590763
vt 0.3039826154708862 0.009803921915590763
vn 0.6575354933738708 0.650791347026825 -0.3796283006668091
vn 0.6575354933738708 0.650791347026825 -0.3796283006668091
vn 0.6575354933738708 0.650791347026825 -0.3796283006668091
f 10/10/10 11/11/11 12/12/12
o object_5
v 35.00060653686523 16.22663497924805 25.09145736694336
v 59.09090805053711 0 39
v -59.09090805053711 0 39
vt 0.790351927280426 0.5905078053474426
vt 0.9901960492134094 0.9901960492134094
vt 0.009803921915590763 0.9901960492134094
vn -6.457554196740171e-18 0.650791347026825 0.7592566013336182
vn 0 0.650791347026825 0.7592566013336182
vn 0 0.650791347026825 0.7592566013336182
f 14/14/14 13/13/13 15/15/15
o object_6
v 41.35995483398438 0 8.289088249206543
v -59.09090805053711 0 39
v 35.00060653686523 16.22663497924805 25.09145736694336
vt 0.3822599947452545 1
vt 0 0.5867630243301392
vt 0.3573834896087646 0.5827216506004333
vn -0.2199610024690628 0.6587825417518616 -0.7194600105285645
vn -0.2199610024690628 0.6587825417518616 -0.7194600105285645
vn -0.2199610024690628 0.6587825417518616 -0.7194600105285645
f 16/16/16 17/17/17 18/18/18
