# Rhino

g Default
o object_1
v -44.79462051391602 14.69994735717773 19.15384674072266
v -44.79462051391602 -0.1500262767076492 -1.243464827537537
v -44.79462051391602 -15 -21.64077568054199
v -24.39731025695801 -4.499483108520508 -36.0638542175293
v -4 6.001034259796143 -50.48693084716797
v -31.19641494750977 1.900327205657959 -17.6579532623291
v -4 15.90101623535156 -36.88872146606445
v -31.19641494750977 21.70029258728027 9.538461685180664
v -4 6.001034259796143 -50.48693084716797
v 36.79462051391602 14.69994735717773 19.15384674072266
v 36.79462051391602 -0.1500262767076492 -1.243464827537537
v 36.79462051391602 -15 -21.64077568054199
v -4 15.90101623535156 -36.88872146606445
v 23.19641494750977 1.900327205657959 -17.6579532623291
v 23.19641494750977 21.70029258728027 9.538461685180664
v -4 -6.301086902618408 48
v 16.39731025695801 4.199430465698242 33.57692337036133
v 36.79462051391602 14.69994735717773 19.15384674072266
v -24.39731025695801 4.199430465698242 33.57692337036133
v -44.79462051391602 14.69994735717773 19.15384674072266
v -31.19641494750977 21.70029258728027 9.538461685180664
v 23.19641494750977 21.70029258728027 9.538461685180664
v -4 7.699602603912354 28.76922988891602
v 23.19641494750977 21.70029258728027 9.538461685180664
v 23.19641494750977 1.900327205657959 -17.6579532623291
v 9.598207473754883 -5.100017547607422 -8.042568206787109
v -4 7.699602603912354 28.76922988891602
v 9.598207473754883 4.799964904785156 5.555638790130615
v -4 -2.200379848480225 15.17102336883545
v -4 7.699602603912354 28.76922988891602
v -17.59820747375488 -5.100017547607422 -8.042568206787109
v -31.19641494750977 21.70029258728027 9.538461685180664
v -31.19641494750977 1.900327205657959 -17.6579532623291
v -4 -2.200379848480225 15.17102336883545
v -17.59820747375488 4.799964904785156 5.555638790130615
v 23.19641494750977 1.900327205657959 -17.6579532623291
v -17.59820747375488 -5.100017547607422 -8.042568206787109
v -31.19641494750977 1.900327205657959 -17.6579532623291
v -4 15.90101623535156 -36.88872146606445
v 9.598207473754883 -5.100017547607422 -8.042568206787109
v -4 1.900327205657959 -17.6579532623291
v -17.59820747375488 -5.100017547607422 -8.042568206787109
v -17.59820747375488 4.799964904785156 5.555638790130615
v -4 1.900327205657959 -17.6579532623291
v -4 12 -4
v -17.59820747375488 4.799964904785156 5.555638790130615
v -4 12 -4
v -4 -2.200379848480225 15.17102336883545
v 9.598207473754883 4.799964904785156 5.555638790130615
v -4 1.900327205657959 -17.6579532623291
v -4 12 -4
v 9.598207473754883 -5.100017547607422 -8.042568206787109
v 9.598207473754883 4.799964904785156 5.555638790130615
vt 0.99853515625 0.488464891910553
vt 0.8514565825462341 0.488464891910553
vt 0.704378068447113 0.488464891910553
vt 0.704378068447113 0.6464343667030334
vt 0.704378068447113 0.8044037818908691
vt 0.8024303913116455 0.5937778353691101
vt 0.8024303913116455 0.8044037818908691
vt 0.99853515625 0.5937778353691101
vt 0.4087561070919037 0.488464891910553
vt 0.702913224697113 0.8044037818908691
vt 0.5558346509933472 0.8044037818908691
vt 0.4087561070919037 0.8044037818908691
vt 0.5068084597587585 0.488464891910553
vt 0.5068084597587585 0.699090838432312
vt 0.702913224697113 0.699090838432312
vt 0 0.4000000059604645
vt 0 0.6036456227302551
vt 0 0.8072912693023682
vt 0.2036456316709518 0.4000000059604645
vt 0.4072912633419037 0.4000000059604645
vt 0.4072912633419037 0.5357637405395508
vt 0.1357637494802475 0.8072912693023682
vt 0.1357637494802475 0.5357637405395508
vt 0.6061769127845764 0.1709526777267456
vt 0.6061769127845764 0.487000048160553
vt 0.7759019136428833 0.487000048160553
vt 0.945626974105835 0.1709526777267456
vt 0.7759019136428833 0.3289763629436493
vt 0.945626974105835 0.3289763629436493
vt 0.1956164538860321 0
vt 0 0.1050507426261902
vt 0.1956164538860321 0.2101014852523804
vt 0 0.2101014852523804
vt 0.09780822694301605 0
vt 0.09780822694301605 0.1050507426261902
vt 0.1970812976360321 0
vt 0.4072912633419037 0.1051049754023552
vt 0.4072912633419037 0.2102099508047104
vt 0.1970812976360321 0.2102099508047104
vt 0.3021862804889679 0
vt 0.3021862804889679 0.1051049754023552
vt 0.4087561070919037 0.2442324459552765
vt 0.4087561070919037 0.4280072152614594
vt 0.6047120690345764 0.2442324459552765
vt 0.6047120690345764 0.4280072152614594
vt 0.775664746761322 0
vt 0.6061769127845764 0
vt 0.775664746761322 0.1694878339767456
vt 0.6061769127845764 0.1694878339767456
vt 0.4087561070919037 0
vt 0.4087561070919037 0.1837747544050217
vt 0.6047120690345764 0
vt 0.6047120690345764 0.1837747544050217
vn -0.6397477388381958 0.621356725692749 -0.4523699879646301
vn -0.6397477388381958 0.621356725692749 -0.4523699879646301
vn -0.6397477388381958 0.621356725692749 -0.4523699879646301
vn -0.6397477388381958 0.621356725692749 -0.4523699879646301
vn -0.6397477388381958 0.621356725692749 -0.4523699879646301
vn -0.6397477388381958 0.621356725692749 -0.4523699879646301
vn -0.6397477388381958 0.621356725692749 -0.4523699879646301
vn -0.6397477388381958 0.621356725692749 -0.4523699879646301
vn 0.6397477388381958 0.621356725692749 -0.4523699879646301
vn 0.6397477388381958 0.621356725692749 -0.4523699879646301
vn 0.6397477388381958 0.621356725692749 -0.4523699879646301
vn 0.6397477388381958 0.621356725692749 -0.4523699879646301
vn 0.6397477388381958 0.621356725692749 -0.4523699879646301
vn 0.6397477388381958 0.621356725692749 -0.4523699879646301
vn 0.6397477388381958 0.621356725692749 -0.4523699879646301
vn 3.432266837780581e-17 0.8084425330162048 0.5885751247406006
vn 0 0.8084425330162048 0.5885751247406006
vn 0 0.8084425330162048 0.5885751247406006
vn 3.432266837780581e-17 0.8084425330162048 0.5885751247406006
vn 6.864533675561161e-17 0.8084425330162048 0.5885751247406006
vn 8.401461061719798e-17 0.8084425330162048 0.5885751247406006
vn -5.600973599983539e-17 0.8084425330162048 0.5885751247406006
vn 2.800486799991769e-17 0.8084425330162048 0.5885751247406006
vn -0.6397477388381958 0.621356725692749 -0.4523699879646301
vn -0.6397477388381958 0.621356725692749 -0.4523699879646301
vn -0.6397477388381958 0.621356725692749 -0.4523699879646301
vn -0.6397477388381958 0.621356725692749 -0.4523699879646301
vn -0.6397477388381958 0.621356725692749 -0.4523699879646301
vn -0.6397477388381958 0.621356725692749 -0.4523699879646301
vn 0.6397477388381958 0.621356725692749 -0.4523699879646301
vn 0.6397477388381958 0.621356725692749 -0.4523699879646301
vn 0.6397477388381958 0.621356725692749 -0.4523699879646301
vn 0.6397477388381958 0.621356725692749 -0.4523699879646301
vn 0.6397477388381958 0.621356725692749 -0.4523699879646301
vn 0.6397477388381958 0.621356725692749 -0.4523699879646301
vn 2.059360235017246e-16 0.8084425330162048 0.5885751247406006
vn 4.461947219987e-16 0.8084425330162048 0.5885751247406006
vn 5.491626940448929e-16 0.8084425330162048 0.5885751247406006
vn 3.775493720081986e-16 0.8084425330162048 0.5885751247406006
vn 2.520438119992593e-16 0.8084425330162048 0.5885751247406006
vn 3.640633104687096e-16 0.8084425330162048 0.5885751247406006
vn -0.6397477388381958 0.621356725692749 -0.4523699879646301
vn -0.6439350247383118 0.6185233592987061 -0.450307160615921
vn -0.6406427621841431 0.6173771023750305 -0.4565330147743225
vn -0.644777238368988 0.61458820104599 -0.4544707238674164
vn -0.007207594346255064 0.8035439252853394 0.595201849937439
vn 3.357986415820013e-16 0.7986618280410767 0.601780116558075
vn 2.533491691803169e-16 0.8084425330162048 0.5885751247406006
vn 0.007207594346255064 0.8035439252853394 0.595201849937439
vn 0.6406427621841431 0.6173771023750305 -0.4565330147743225
vn 0.644777238368988 0.61458820104599 -0.4544707238674164
vn 0.6397477388381958 0.621356725692749 -0.4523699879646301
vn 0.6439350247383118 0.6185233592987061 -0.450307160615921
f 2/2/2 1/1/1 8/8/8
f 2/2/2 6/6/6 3/3/3
f 4/4/4 6/6/6 7/7/7
f 7/7/7 5/5/5 4/4/4
f 3/3/3 6/6/6 4/4/4
f 14/14/14 9/9/9 13/13/13
f 14/14/14 15/15/15 11/11/11
f 9/9/9 14/14/14 12/12/12
f 11/11/11 12/12/12 14/14/14
f 17/17/17 23/23/23 16/16/16
f 19/19/19 16/16/16 23/23/23
f 18/18/18 22/22/22 17/17/17
f 19/19/19 23/23/23 21/21/21
f 25/25/25 28/28/28 24/24/24
f 27/27/27 24/24/24 28/28/28
f 26/26/26 28/28/28 25/25/25
f 27/27/27 28/28/28 29/29/29
f 34/34/34 35/35/35 30/30/30
f 32/32/32 30/30/30 35/35/35
f 31/31/31 33/33/33 35/35/35
f 32/32/32 35/35/35 33/33/33
f 41/41/41 40/40/40 36/36/36
f 39/39/39 38/38/38 41/41/41
f 37/37/37 41/41/41 38/38/38
f 36/36/36 39/39/39 41/41/41
f 43/43/43 45/45/45 42/42/42
f 47/47/47 46/46/46 48/48/48
f 51/51/51 53/53/53 52/52/52
f 2/2/2 8/8/8 6/6/6
f 15/15/15 10/10/10 11/11/11
f 22/22/22 23/23/23 17/17/17
f 19/19/19 21/21/21 20/20/20
f 45/45/45 44/44/44 42/42/42
f 47/47/47 48/48/48 49/49/49
f 51/51/51 52/52/52 50/50/50
