# ofxOBJModel output



g Default
o object_1
v -0.001 0.251112 0.163446 
v 0.421278 0.240112 0 
v 0.425278 0.002 0.163446 

vn -0.304262 -0.526997 -0.793535 
vn -0.304262 -0.526997 -0.793535 
vn -0.304262 -0.526997 -0.793535 

vt 0.5 0.75 0 
vt 1 0.75 0 
vt 1 0.5 0 
f 1/1/1 2/2/2 3/3/3
v 0.421278 0.240112 0 
v -0.001 0.251112 0.163446 
v 1.95062e-016 0.488224 0 

vn -0.304262 -0.526997 -0.793535 
vn -0.304262 -0.526997 -0.793535 
vn -0.304262 -0.526997 -0.793535 

vt 1 0.75 0 
vt 0.5 0.75 0 
vt 0.5 1 0 
f 4/4/4 5/5/5 6/6/6
v 0.416278 -0.267112 0 
v -0.425278 0.225112 0 
v -0.001 0.251112 0.163446 

vn 0.304262 0.526997 -0.793535 
vn -0.304548 -0.527493 -0.793096 
vn 0.304262 0.526997 -0.793535 

vt 1 0.25 0 
vt 0 0.75 0 
vt 0.5 0.75 0 
f 7/7/7 8/8/8 9/9/9
v -0.001 0.251112 0.163446 
v 0.425278 0.002 0.163446 
v 0.416278 -0.267112 0 

vn 0.304262 0.526997 -0.793535 
vn 0.304262 0.526997 -0.793535 
vn 0.304262 0.526997 -0.793535 

vt 0.5 0.75 0 
vt 1 0.5 0 
vt 1 0.25 0 
f 10/10/10 11/11/11 12/12/12
v -0.001 0.251112 0.163446 
v -0.425278 0.225112 0 
v 1.95062e-016 0.488224 0 

vn 0.304262 -0.526997 -0.793535 
vn 0.304262 -0.526997 -0.793535 
vn 0.304262 -0.526997 -0.793535 

vt 0.5 0.75 0 
vt 0 0.75 0 
vt 0.5 1 0 
f 13/13/13 14/14/14 15/15/15
v 0.007 -0.242112 0.163446 
v -0.428278 -0.260112 0 
v -0.418278 0.006 0.163446 

vn 0.304262 0.526997 -0.793535 
vn 0.304262 0.526997 -0.793535 
vn 0.304262 0.526997 -0.793535 

vt 0.5 0.25 0 
vt 0 0.25 0 
vt 0 0.5 0 
f 16/16/16 17/17/17 18/18/18
v -0.428278 -0.260112 0 
v 0.007 -0.242112 0.163446 
v -0.004 -0.506223 0 

vn 0.304262 0.526997 -0.793535 
vn 0.304262 0.526997 -0.793535 
vn 0.304262 0.526997 -0.793535 

vt 0 0.25 0 
vt 0.5 0.25 0 
vt 0.5 0 0 
f 19/19/19 20/20/20 21/21/21
v -0.425278 0.225112 0 
v 0.416278 -0.267112 0 
v 0.007 -0.242112 0.163446 

vn -0.304262 -0.526997 -0.793535 
vn -0.304262 -0.526997 -0.793535 
vn -0.304262 -0.526997 -0.793535 

vt 0 0.75 0 
vt 1 0.25 0 
vt 0.5 0.25 0 
f 22/22/22 23/23/23 24/24/24
v 0.007 -0.242112 0.163446 
v -0.418278 0.006 0.163446 
v -0.425278 0.225112 0 

vn -0.304262 -0.526997 -0.793535 
vn -0.304262 -0.526997 -0.793535 
vn -0.304262 -0.526997 -0.793535 

vt 0.5 0.25 0 
vt 0 0.5 0 
vt 0 0.75 0 
f 25/25/25 26/26/26 27/27/27
v 0.007 -0.242112 0.163446 
v 0.416278 -0.267112 0 
v -0.004 -0.506223 0 

vn -0.304262 0.526997 -0.793535 
vn 0.304548 -0.527493 -0.793096 
vn -0.304262 0.526997 -0.793535 

vt 0.5 0.25 0 
vt 1 0.25 0 
vt 0.5 0 0 
f 28/28/28 29/29/29 30/30/30

