# ofxOBJModel output



g Default
o object_1
v -0.106308 0.392 0.035 
v -0.00923077 0.342 0.16 
v 0.0818461 0.396001 0.035 

vn -1.14229e-016 0.857493 0.514496 
vn -5.71146e-017 0.857493 0.514496 
vn -2.85573e-016 0.857493 0.514496 

vt 0.4 0.928571 0 
vt 0.5 0.857143 0 
vt 0.6 0.928571 0 
f 1/1/1 2/2/2 3/3/3
v 0.0818461 0.396001 0.035 
v -0.0212308 0.447001 -0.09 
v -0.106308 0.392 0.035 

vn -2.85573e-016 0.857493 0.514496 
vn 1.71344e-016 0.857493 0.514496 
vn -1.14229e-016 0.857493 0.514496 

vt 0.6 0.928571 0 
vt 0.5 1 0 
vt 0.4 0.928571 0 
f 4/4/4 5/5/5 6/6/6
v -0.299462 -0.002 0.285 
v -0.493615 0.108 0.035 
v -0.504615 -0.191 0.035 

vn -0.786738 -0 0.617287 
vn -0.786738 -0 0.617287 
vn -0.786738 -0 0.617287 

vt 0.2 0.5 0 
vt 0 0.642857 0 
vt 0 0.357143 0 
f 7/7/7 8/8/8 9/9/9
v -0.493615 0.108 0.035 
v -0.304462 0.104 0.035 
v -0.421538 0.154 -0.09 

vn -3.83537e-017 0.857493 0.514496 
vn 1.19855e-016 0.857493 0.514496 
vn 7.67075e-017 0.857493 0.514496 

vt 0 0.642857 0 
vt 0.2 0.642857 0 
vt 0.1 0.714286 0 
f 10/10/10 11/11/11 12/12/12
v -0.205385 0.052 0.16 
v -0.304462 0.104 0.035 
v -0.299462 -0.002 0.285 

vn 1.91769e-016 0.857493 0.514496 
vn 1.19855e-016 0.857493 0.514496 
vn 7.67075e-017 0.857493 0.514496 

vt 0.3 0.571429 0 
vt 0.2 0.642857 0 
vt 0.2 0.5 0 
f 13/13/13 14/14/14 15/15/15
v -0.493615 0.108 0.035 
v -0.299462 -0.002 0.285 
v -0.304462 0.104 0.035 

vn -3.83537e-017 0.857493 0.514496 
vn 7.67075e-017 0.857493 0.514496 
vn 1.19855e-016 0.857493 0.514496 

vt 0 0.642857 0 
vt 0.2 0.5 0 
vt 0.2 0.642857 0 
f 16/16/16 17/17/17 18/18/18
v -0.204385 -0.089 0.16 
v -0.205385 0.052 0.16 
v -0.299462 -0.002 0.285 

vn 0.786738 2.79506e-016 0.617287 
vn 0.786738 2.79506e-016 0.617287 
vn 0.786738 -0 0.617287 

vt 0.3 0.428571 0 
vt 0.3 0.571429 0 
vt 0.2 0.5 0 
f 19/19/19 20/20/20 21/21/21
v -0.309461 -0.183 0.035 
v -0.299462 -0.002 0.285 
v -0.504615 -0.191 0.035 

vn 1.79783e-016 -0.857493 0.514496 
vn 7.67075e-017 -0.857493 0.514496 
vn -3.83537e-017 -0.857493 0.514496 

vt 0.2 0.357143 0 
vt 0.2 0.5 0 
vt 0 0.357143 0 
f 22/22/22 23/23/23 24/24/24
v -0.299462 -0.002 0.285 
v -0.309461 -0.183 0.035 
v -0.204385 -0.089 0.16 

vn 7.67075e-017 -0.857493 0.514496 
vn 1.79783e-016 -0.857493 0.514496 
vn 1.91769e-016 -0.857493 0.514496 

vt 0.2 0.5 0 
vt 0.2 0.357143 0 
vt 0.3 0.428571 0 
f 25/25/25 26/26/26 27/27/27
v -0.504615 -0.191 0.035 
v -0.418538 -0.282 -0.09 
v -0.309461 -0.183 0.035 

vn -3.83537e-017 -0.857493 0.514496 
vn 7.67075e-017 -0.857493 0.514496 
vn 1.79783e-016 -0.857493 0.514496 

vt 0 0.357143 0 
vt 0.1 0.285714 0 
vt 0.2 0.357143 0 
f 28/28/28 29/29/29 30/30/30
v -0.222385 0.201 0.16 
v -0.302462 0.243 0.035 
v -0.304462 0.104 0.035 

vn -0.786738 2.49405e-016 0.617287 
vn -0.786738 -0 0.617287 
vn -0.786738 -0 0.617287 

vt 0.3 0.714286 0 
vt 0.2 0.785714 0 
vt 0.2 0.642857 0 
f 31/31/31 32/32/32 33/33/33
v -0.272423 0.271501 -0.0275 
v -0.00923077 0.195 0.16 
v -0.107308 0.258 0.035 

vn 3.83537e-017 0.857493 0.514496 
vn -7.67075e-017 0.857493 0.514496 
vn 0 0.857493 0.514496 

vt 0.25 0.821429 0 
vt 0.5 0.714286 0 
vt 0.4 0.785714 0 
f 34/34/34 35/35/35 36/36/36
v -0.272423 0.271501 -0.0275 
v -0.107308 0.258 0.035 
v -0.221385 0.295 -0.09 

vn 3.83537e-017 0.857493 0.514496 
vn 0 0.857493 0.514496 
vn 7.67075e-017 0.857493 0.514496 

vt 0.25 0.821429 0 
vt 0.4 0.785714 0 
vt 0.3 0.857143 0 
f 37/37/37 38/38/38 39/39/39
v -0.272423 0.271501 -0.0275 
v -0.222385 0.201 0.16 
v -0.103308 0.138 0.285 

vn 3.83537e-017 0.857493 0.514496 
vn 0 0.857493 0.514496 
vn -7.67075e-017 0.857493 0.514496 

vt 0.25 0.821429 0 
vt 0.3 0.714286 0 
vt 0.4 0.642857 0 
f 40/40/40 41/41/41 42/42/42
v -0.222385 0.201 0.16 
v -0.272423 0.271501 -0.0275 
v -0.302462 0.243 0.035 

vn 0 0.857493 0.514496 
vn 3.83537e-017 0.857493 0.514496 
vn 7.67075e-017 0.857493 0.514496 

vt 0.3 0.714286 0 
vt 0.25 0.821429 0 
vt 0.2 0.785714 0 
f 43/43/43 44/44/44 45/45/45
v -0.00923077 0.195 0.16 
v -0.272423 0.271501 -0.0275 
v -0.103308 0.138 0.285 

vn -7.67075e-017 0.857493 0.514496 
vn 3.83537e-017 0.857493 0.514496 
vn -7.67075e-017 0.857493 0.514496 

vt 0.5 0.714286 0 
vt 0.25 0.821429 0 
vt 0.4 0.642857 0 
f 46/46/46 47/47/47 48/48/48
v -0.208385 -0.245 0.16 
v -0.204385 -0.089 0.16 
v -0.309461 -0.183 0.035 

vn -0.786738 -1.09652e-016 0.617287 
vn -0.786738 -1.09652e-016 0.617287 
vn -0.786738 -0 0.617287 

vt 0.3 0.285714 0 
vt 0.3 0.428571 0 
vt 0.2 0.357143 0 
f 49/49/49 50/50/50 51/51/51
v -0.208385 -0.245 0.16 
v -0.109308 -0.337 0.035 
v -0.00923077 -0.247 0.16 

vn -5.99277e-017 -0.857493 0.514496 
vn 5.99277e-017 -0.857493 0.514496 
vn 3.83537e-017 -0.857493 0.514496 

vt 0.3 0.285714 0 
vt 0.4 0.214286 0 
vt 0.5 0.285714 0 
f 52/52/52 53/53/53 54/54/54
v -0.309461 -0.344 0.035 
v -0.227385 -0.432999 -0.09 
v -0.109308 -0.337 0.035 

vn -2.30122e-016 -0.857493 0.514496 
vn -1.91769e-016 -0.857493 0.514496 
vn 5.99277e-017 -0.857493 0.514496 

vt 0.2 0.214286 0 
vt 0.3 0.142857 0 
vt 0.4 0.214286 0 
f 55/55/55 56/56/56 57/57/57
v -0.0102308 -0.396 0.16 
v -0.00923077 -0.247 0.16 
v -0.109308 -0.337 0.035 

vn -0.786738 -2.23201e-016 0.617287 
vn -0.786738 -2.23201e-016 0.617287 
vn -0.786738 -1.37065e-016 0.617287 

vt 0.5 0.142857 0 
vt 0.5 0.285714 0 
vt 0.4 0.214286 0 
f 58/58/58 59/59/59 60/60/60
v -0.00923077 0.195 0.16 
v -0.00923077 0.342 0.16 
v -0.107308 0.258 0.035 

vn -0.786738 2.23201e-016 0.617287 
vn -0.786738 2.23201e-016 0.617287 
vn -0.786738 1.37065e-016 0.617287 

vt 0.5 0.714286 0 
vt 0.5 0.857143 0 
vt 0.4 0.785714 0 
f 61/61/61 62/62/62 63/63/63
v -0.105308 -0.153 0.285 
v -0.103308 0.138 0.285 
v -0.205385 0.052 0.16 

vn -0.786738 -0 0.617287 
vn -0.786738 -0 0.617287 
vn -0.786738 -0 0.617287 

vt 0.4 0.357143 0 
vt 0.4 0.642857 0 
vt 0.3 0.571429 0 
f 64/64/64 65/65/65 66/66/66
v -0.222385 0.201 0.16 
v -0.205385 0.052 0.16 
v -0.103308 0.138 0.285 

vn -0.786738 -0 0.617287 
vn -0.786738 -0 0.617287 
vn -0.786738 -0 0.617287 

vt 0.3 0.714286 0 
vt 0.3 0.571429 0 
vt 0.4 0.642857 0 
f 67/67/67 68/68/68 69/69/69
v -0.105308 -0.153 0.285 
v -0.204385 -0.089 0.16 
v -0.208385 -0.245 0.16 

vn -0.786738 -0 0.617287 
vn -0.786738 -0 0.617287 
vn -0.786738 -0 0.617287 

vt 0.4 0.357143 0 
vt 0.3 0.428571 0 
vt 0.3 0.285714 0 
f 70/70/70 71/71/71 72/72/72
v -0.00923077 -0.247 0.16 
v -0.00923077 0.195 0.16 
v -0.103308 0.138 0.285 

vn 0.786738 -0 0.617287 
vn 0.786738 -0 0.617287 
vn 0.786738 -0 0.617287 

vt 0.5 0.285714 0 
vt 0.5 0.714286 0 
vt 0.4 0.642857 0 
f 73/73/73 74/74/74 75/75/75
v -0.00923077 -0.247 0.16 
v 0.0908462 -0.153 0.285 
v 0.0938462 0.142 0.285 

vn -0.786738 -0 0.617287 
vn -0.786738 -0 0.617287 
vn -0.786738 -0 0.617287 

vt 0.5 0.285714 0 
vt 0.6 0.357143 0 
vt 0.6 0.642857 0 
f 76/76/76 77/77/77 78/78/78
v 0.0908462 -0.153 0.285 
v 0.184923 -0.1 0.16 
v 0.186923 0.047 0.16 

vn 0.786738 -0 0.617287 
vn 0.786738 -0 0.617287 
vn 0.786738 -0 0.617287 

vt 0.6 0.357143 0 
vt 0.7 0.428571 0 
vt 0.7 0.571429 0 
f 79/79/79 80/80/80 81/81/81
v 0.186923 0.195 0.16 
v 0.0938462 0.142 0.285 
v 0.186923 0.047 0.16 

vn 0.786738 -0 0.617287 
vn 0.786738 -0 0.617287 
vn 0.786738 -0 0.617287 

vt 0.7 0.714286 0 
vt 0.6 0.642857 0 
vt 0.7 0.571429 0 
f 82/82/82 83/83/83 84/84/84
v 0.0908462 -0.153 0.285 
v 0.184923 -0.247 0.16 
v 0.184923 -0.1 0.16 

vn 0.786738 -0 0.617287 
vn 0.786738 -0 0.617287 
vn 0.786738 -0 0.617287 

vt 0.6 0.357143 0 
vt 0.7 0.285714 0 
vt 0.7 0.428571 0 
f 85/85/85 86/86/86 87/87/87
v -0.00923077 0.195 0.16 
v 0.0878461 0.253 0.035 
v -0.00923077 0.342 0.16 

vn 0.786738 2.31936e-016 0.617287 
vn 0.786738 1.37065e-016 0.617287 
vn 0.786738 2.31936e-016 0.617287 

vt 0.5 0.714286 0 
vt 0.6 0.785714 0 
vt 0.5 0.857143 0 
f 88/88/88 89/89/89 90/90/90
v -0.0102308 -0.396 0.16 
v 0.0848461 -0.479 0.035 
v 0.0758461 -0.34 0.035 

vn 0.786738 -2.31936e-016 0.617287 
vn 0.786738 -1.37065e-016 0.617287 
vn 0.786738 -1.37065e-016 0.617287 

vt 0.5 0.142857 0 
vt 0.6 0.0714286 0 
vt 0.6 0.214286 0 
f 91/91/91 92/92/92 93/93/93
v 0.184923 -0.247 0.16 
v 0.0908462 -0.153 0.285 
v -0.00923077 -0.247 0.16 

vn 5.99277e-017 -0.857493 0.514496 
vn 0 -0.857493 0.514496 
vn -3.83537e-017 -0.857493 0.514496 

vt 0.7 0.285714 0 
vt 0.6 0.357143 0 
vt 0.5 0.285714 0 
f 94/94/94 95/95/95 96/96/96
v 0.275 -0.338 0.035 
v 0.184923 -0.247 0.16 
v 0.0758461 -0.34 0.035 

vn 2.30122e-016 -0.857493 0.514496 
vn 5.99277e-017 -0.857493 0.514496 
vn 0 -0.857493 0.514496 

vt 0.8 0.214286 0 
vt 0.7 0.285714 0 
vt 0.6 0.214286 0 
f 97/97/97 98/98/98 99/99/99
v 0.184923 -0.247 0.16 
v 0.275 -0.338 0.035 
v 0.274 -0.193 0.035 

vn 0.786738 -1.09652e-016 0.617287 
vn 0.786738 -0 0.617287 
vn 0.786738 -0 0.617287 

vt 0.7 0.285714 0 
vt 0.8 0.214286 0 
vt 0.8 0.357143 0 
f 100/100/100 101/101/101 102/102/102
v 0.0878461 0.253 0.035 
v -0.00923077 0.195 0.16 
v 0.186923 0.195 0.16 

vn 0 0.857493 0.514496 
vn 7.67075e-017 0.857493 0.514496 
vn 0 0.857493 0.514496 

vt 0.6 0.785714 0 
vt 0.5 0.714286 0 
vt 0.7 0.714286 0 
f 103/103/103 104/104/104 105/105/105
v 0.180923 0.294001 -0.09 
v 0.0878461 0.253 0.035 
v 0.273 0.252 0.035 

vn -7.67075e-017 0.857493 0.514496 
vn 0 0.857493 0.514496 
vn -7.67075e-017 0.857493 0.514496 

vt 0.7 0.857143 0 
vt 0.6 0.785714 0 
vt 0.8 0.785714 0 
f 106/106/106 107/107/107 108/108/108
v 0.186923 0.195 0.16 
v 0.186923 0.047 0.16 
v 0.285 0.107 0.035 

vn 0.786738 2.49405e-016 0.617287 
vn 0.786738 2.49405e-016 0.617287 
vn 0.786738 -0 0.617287 

vt 0.7 0.714286 0 
vt 0.7 0.571429 0 
vt 0.8 0.642857 0 
f 109/109/109 110/110/110 111/111/111
v 0.473154 -0.184 0.035 
v 0.285 -0.008 0.285 
v 0.463115 -0.1995 -0.0275 

vn 3.83537e-017 -0.857493 0.514496 
vn -7.67075e-017 -0.857493 0.514496 
vn 3.83537e-017 -0.857493 0.514496 

vt 1 0.357143 0 
vt 0.8 0.5 0 
vt 0.95 0.321429 0 
f 112/112/112 113/113/113 114/114/114
v 0.184923 -0.1 0.16 
v 0.463115 -0.1995 -0.0275 
v 0.285 -0.008 0.285 

vn -1.91769e-016 -0.857493 0.514496 
vn 3.83537e-017 -0.857493 0.514496 
vn -7.67075e-017 -0.857493 0.514496 

vt 0.7 0.428571 0 
vt 0.95 0.321429 0 
vt 0.8 0.5 0 
f 115/115/115 116/116/116 117/117/117
v 0.463115 -0.1995 -0.0275 
v 0.184923 -0.1 0.16 
v 0.274 -0.193 0.035 

vn 3.83537e-017 -0.857493 0.514496 
vn -1.91769e-016 -0.857493 0.514496 
vn -2.39711e-016 -0.857493 0.514496 

vt 0.95 0.321429 0 
vt 0.7 0.428571 0 
vt 0.8 0.357143 0 
f 118/118/118 119/119/119 120/120/120
v 0.463115 -0.1995 -0.0275 
v 0.274 -0.193 0.035 
v 0.373077 -0.284 -0.09 

vn 3.83537e-017 -0.857493 0.514496 
vn -2.39711e-016 -0.857493 0.514496 
vn -7.67075e-017 -0.857493 0.514496 

vt 0.95 0.321429 0 
vt 0.8 0.357143 0 
vt 0.9 0.285714 0 
f 121/121/121 122/122/122 123/123/123
v 0.184923 -0.1 0.16 
v 0.285 -0.008 0.285 
v 0.186923 0.047 0.16 

vn -0.786738 1.39753e-016 0.617287 
vn -0.786738 -0 0.617287 
vn -0.786738 1.39753e-016 0.617287 

vt 0.7 0.428571 0 
vt 0.8 0.5 0 
vt 0.7 0.571429 0 
f 124/124/124 125/125/125 126/126/126
v 0.481154 0.108 0.035 
v 0.375077 0.154 -0.09 
v 0.285 0.107 0.035 

vn 3.83537e-017 0.857493 0.514496 
vn -7.67075e-017 0.857493 0.514496 
vn -1.79783e-016 0.857493 0.514496 

vt 1 0.642857 0 
vt 0.9 0.714286 0 
vt 0.8 0.642857 0 
f 127/127/127 128/128/128 129/129/129
v 0.186923 0.047 0.16 
v 0.285 -0.008 0.285 
v 0.285 0.107 0.035 

vn -1.91769e-016 0.857493 0.514496 
vn -7.67075e-017 0.857493 0.514496 
vn -1.79783e-016 0.857493 0.514496 

vt 0.7 0.571429 0 
vt 0.8 0.5 0 
vt 0.8 0.642857 0 
f 130/130/130 131/131/131 132/132/132
v 0.481154 0.108 0.035 
v 0.285 0.107 0.035 
v 0.285 -0.008 0.285 

vn 3.83537e-017 0.857493 0.514496 
vn -1.79783e-016 0.857493 0.514496 
vn -7.67075e-017 0.857493 0.514496 

vt 1 0.642857 0 
vt 0.8 0.642857 0 
vt 0.8 0.5 0 
f 133/133/133 134/134/134 135/135/135
v 0.285 -0.008 0.285 
v 0.473154 -0.184 0.035 
v 0.481154 0.108 0.035 

vn 0.786738 -0 0.617287 
vn 0.786738 -0 0.617287 
vn 0.786738 -0 0.617287 

vt 0.8 0.5 0 
vt 1 0.357143 0 
vt 1 0.642857 0 
f 136/136/136 137/137/137 138/138/138
v 0.0848461 -0.479 0.035 
v -0.0102308 -0.396 0.16 
v -0.109308 -0.49 0.035 

vn 2.85573e-016 -0.857493 0.514496 
vn -2.28458e-016 -0.857493 0.514496 
vn -1.71344e-016 -0.857493 0.514496 

vt 0.6 0.0714286 0 
vt 0.5 0.142857 0 
vt 0.4 0.0714286 0 
f 139/139/139 140/140/140 141/141/141
v -0.109308 -0.49 0.035 
v -0.0232308 -0.583 -0.09 
v 0.0848461 -0.479 0.035 

vn -1.71344e-016 -0.857493 0.514496 
vn 1.71344e-016 -0.857493 0.514496 
vn 2.85573e-016 -0.857493 0.514496 

vt 0.4 0.0714286 0 
vt 0.5 0 0 
vt 0.6 0.0714286 0 
f 142/142/142 143/143/143 144/144/144
v -0.222385 0.201 0.16 
v -0.304462 0.104 0.035 
v -0.205385 0.052 0.16 

vn -0.786738 2.49405e-016 0.617287 
vn -0.786738 -0 0.617287 
vn -0.786738 2.49405e-016 0.617287 

vt 0.3 0.714286 0 
vt 0.2 0.642857 0 
vt 0.3 0.571429 0 
f 145/145/145 146/146/146 147/147/147
v -0.208385 -0.245 0.16 
v -0.309461 -0.183 0.035 
v -0.309461 -0.344 0.035 

vn -0.786738 -1.09652e-016 0.617287 
vn -0.786738 -0 0.617287 
vn -0.786738 -0 0.617287 

vt 0.3 0.285714 0 
vt 0.2 0.357143 0 
vt 0.2 0.214286 0 
f 148/148/148 149/149/149 150/150/150
v -0.208385 -0.245 0.16 
v -0.00923077 -0.247 0.16 
v -0.105308 -0.153 0.285 

vn -5.99277e-017 -0.857493 0.514496 
vn 3.83537e-017 -0.857493 0.514496 
vn 0 -0.857493 0.514496 

vt 0.3 0.285714 0 
vt 0.5 0.285714 0 
vt 0.4 0.357143 0 
f 151/151/151 152/152/152 153/153/153
v -0.309461 -0.344 0.035 
v -0.109308 -0.337 0.035 
v -0.208385 -0.245 0.16 

vn -2.30122e-016 -0.857493 0.514496 
vn 5.99277e-017 -0.857493 0.514496 
vn -5.99277e-017 -0.857493 0.514496 

vt 0.2 0.214286 0 
vt 0.4 0.214286 0 
vt 0.3 0.285714 0 
f 154/154/154 155/155/155 156/156/156
v -0.0102308 -0.396 0.16 
v -0.109308 -0.337 0.035 
v -0.109308 -0.49 0.035 

vn -0.786738 -2.23201e-016 0.617287 
vn -0.786738 -1.37065e-016 0.617287 
vn -0.786738 -1.37065e-016 0.617287 

vt 0.5 0.142857 0 
vt 0.4 0.214286 0 
vt 0.4 0.0714286 0 
f 157/157/157 158/158/158 159/159/159
v -0.00923077 0.342 0.16 
v -0.106308 0.392 0.035 
v -0.107308 0.258 0.035 

vn -0.786738 2.23201e-016 0.617287 
vn -0.786738 1.37065e-016 0.617287 
vn -0.786738 1.37065e-016 0.617287 

vt 0.5 0.857143 0 
vt 0.4 0.928571 0 
vt 0.4 0.785714 0 
f 160/160/160 161/161/161 162/162/162
v -0.105308 -0.153 0.285 
v -0.205385 0.052 0.16 
v -0.204385 -0.089 0.16 

vn -0.786738 -0 0.617287 
vn -0.786738 -0 0.617287 
vn -0.786738 -0 0.617287 

vt 0.4 0.357143 0 
vt 0.3 0.571429 0 
vt 0.3 0.428571 0 
f 163/163/163 164/164/164 165/165/165
v -0.00923077 -0.247 0.16 
v -0.103308 0.138 0.285 
v -0.105308 -0.153 0.285 

vn 0.786738 -0 0.617287 
vn 0.786738 -0 0.617287 
vn 0.786738 -0 0.617287 

vt 0.5 0.285714 0 
vt 0.4 0.642857 0 
vt 0.4 0.357143 0 
f 166/166/166 167/167/167 168/168/168
v -0.00923077 -0.247 0.16 
v 0.0938462 0.142 0.285 
v -0.00923077 0.195 0.16 

vn -0.786738 -0 0.617287 
vn -0.786738 -0 0.617287 
vn -0.786738 -0 0.617287 

vt 0.5 0.285714 0 
vt 0.6 0.642857 0 
vt 0.5 0.714286 0 
f 169/169/169 170/170/170 171/171/171
v 0.0908462 -0.153 0.285 
v 0.186923 0.047 0.16 
v 0.0938462 0.142 0.285 

vn 0.786738 -0 0.617287 
vn 0.786738 -0 0.617287 
vn 0.786738 -0 0.617287 

vt 0.6 0.357143 0 
vt 0.7 0.571429 0 
vt 0.6 0.642857 0 
f 172/172/172 173/173/173 174/174/174
v 0.0878461 0.253 0.035 
v 0.0818461 0.396001 0.035 
v -0.00923077 0.342 0.16 

vn 0.786738 1.37065e-016 0.617287 
vn 0.786738 1.37065e-016 0.617287 
vn 0.786738 2.31936e-016 0.617287 

vt 0.6 0.785714 0 
vt 0.6 0.928571 0 
vt 0.5 0.857143 0 
f 175/175/175 176/176/176 177/177/177
v -0.0102308 -0.396 0.16 
v 0.0758461 -0.34 0.035 
v -0.00923077 -0.247 0.16 

vn 0.786738 -2.31936e-016 0.617287 
vn 0.786738 -1.37065e-016 0.617287 
vn 0.786738 -2.31936e-016 0.617287 

vt 0.5 0.142857 0 
vt 0.6 0.214286 0 
vt 0.5 0.285714 0 
f 178/178/178 179/179/179 180/180/180
v 0.184923 -0.247 0.16 
v -0.00923077 -0.247 0.16 
v 0.0758461 -0.34 0.035 

vn 5.99277e-017 -0.857493 0.514496 
vn -3.83537e-017 -0.857493 0.514496 
vn 0 -0.857493 0.514496 

vt 0.7 0.285714 0 
vt 0.5 0.285714 0 
vt 0.6 0.214286 0 
f 181/181/181 182/182/182 183/183/183
v 0.275 -0.338 0.035 
v 0.0758461 -0.34 0.035 
v 0.175923 -0.432 -0.09 

vn 2.30122e-016 -0.857493 0.514496 
vn 0 -0.857493 0.514496 
vn 1.91769e-016 -0.857493 0.514496 

vt 0.8 0.214286 0 
vt 0.6 0.214286 0 
vt 0.7 0.142857 0 
f 184/184/184 185/185/185 186/186/186
v 0.184923 -0.247 0.16 
v 0.274 -0.193 0.035 
v 0.184923 -0.1 0.16 

vn 0.786738 -1.09652e-016 0.617287 
vn 0.786738 -0 0.617287 
vn 0.786738 -1.09652e-016 0.617287 

vt 0.7 0.285714 0 
vt 0.8 0.357143 0 
vt 0.7 0.428571 0 
f 187/187/187 188/188/188 189/189/189
v -0.00923077 0.195 0.16 
v 0.0938462 0.142 0.285 
v 0.186923 0.195 0.16 

vn 7.67075e-017 0.857493 0.514496 
vn 7.67075e-017 0.857493 0.514496 
vn 0 0.857493 0.514496 

vt 0.5 0.714286 0 
vt 0.6 0.642857 0 
vt 0.7 0.714286 0 
f 190/190/190 191/191/191 192/192/192
v 0.0878461 0.253 0.035 
v 0.186923 0.195 0.16 
v 0.273 0.252 0.035 

vn 0 0.857493 0.514496 
vn 0 0.857493 0.514496 
vn -7.67075e-017 0.857493 0.514496 

vt 0.6 0.785714 0 
vt 0.7 0.714286 0 
vt 0.8 0.785714 0 
f 193/193/193 194/194/194 195/195/195
v 0.186923 0.195 0.16 
v 0.285 0.107 0.035 
v 0.273 0.252 0.035 

vn 0.786738 2.49405e-016 0.617287 
vn 0.786738 -0 0.617287 
vn 0.786738 -0 0.617287 

vt 0.7 0.714286 0 
vt 0.8 0.642857 0 
vt 0.8 0.785714 0 
f 196/196/196 197/197/197 198/198/198

